<svg xmlns="http://www.w3.org/2000/svg" xmlns:xlink="http://www.w3.org/1999/xlink" width="1023.101" height="1004.655" viewBox="0 0 1023.101 1004.655"><defs><style>.a{opacity:0.4;}.b,.d{isolation:isolate;}.c{fill:url(#a);}.d{opacity:0.74;mix-blend-mode:multiply;}</style><linearGradient id="a" y1="0.5" x2="1" y2="0.5" gradientUnits="objectBoundingBox"><stop offset="0" stop-color="#7f0"/><stop offset="0.99"/><stop offset="1"/></linearGradient></defs><g class="a" transform="matrix(-0.966, -0.259, 0.259, -0.966, 562.827, 1281.632)"><g transform="translate(-168.167 331.806)"><g class="b"><g transform="translate(462.63 239.323)"><path class="c" d="M152.238,775.173,10.684,776.358-74.894,381.243,66.66,380.057Z" transform="translate(74.894 -380.057)"/></g><g transform="translate(0 0.002)"><path class="c" d="M-26.614,913.313-168.167,914.5,353.8,332.992l141.554-1.185Z" transform="translate(168.167 -331.806)"/></g><g transform="translate(0 581.508)"><path class="c" d="M671.587,681.439l-141.553,1.186-698.2-232.393,141.553-1.185Z" transform="translate(168.167 -449.047)"/></g><g transform="translate(141.552)"><path class="c" d="M382.338,331.806l176.237,813.9-698.2-232.389ZM69.648,853.415,408.581,966.244,323,571.129,69.648,853.415" transform="translate(139.628 -331.806)"/></g></g></g><g class="d" transform="translate(-168.167 913.314)"><path class="c" d="M671.587,681.439l-141.553,1.186-698.2-232.393,141.553-1.185Z" transform="translate(166.942 -449.754)"/></g></g></svg>