<svg xmlns="http://www.w3.org/2000/svg" xmlns:xlink="http://www.w3.org/1999/xlink" width="862.495" height="902.894" viewBox="0 0 862.495 902.894"><defs><style>.a{opacity:0.4;}.b{isolation:isolate;}.c{fill:url(#a);}.d{fill:url(#b);}.e{fill:url(#c);}</style><linearGradient id="a" x1="0.29" y1="0.983" x2="1.064" y2="-0.177" gradientUnits="objectBoundingBox"><stop offset="0" stop-color="#7f0"/><stop offset="0.99"/><stop offset="1"/></linearGradient><linearGradient id="b" x1="0.197" y1="0.963" x2="0.735" y2="-0.133" xlink:href="#a"/><linearGradient id="c" x1="0.265" y1="0.854" x2="0.772" y2="0.09" xlink:href="#a"/></defs><g class="a" transform="matrix(-0.966, -0.259, 0.259, -0.966, 511.1, 1450.833)"><g class="b" transform="translate(-27.353 574.597)"><path class="c" d="M447.2,859.009c.469-1.651.975-3.3,1.407-4.954.52-1.987.957-3.979,1.426-5.97.382-1.61.8-3.215,1.15-4.829.442-2.047.8-4.1,1.182-6.145.294-1.568.635-3.127.9-4.7.363-2.143.635-4.287.934-6.43.207-1.476.46-2.957.639-4.434.262-2.171.432-4.342.63-6.509.133-1.458.313-2.916.419-4.374.17-2.355.244-4.71.336-7.065.051-1.265.152-2.53.179-3.795q.117-5.43-.037-10.836c-1.426-49.252-20.086-89.3-50.135-116.263L334.79,608.586c30.044,26.967,48.7,67.016,50.135,116.268q.152,5.4.032,10.832c-.028,1.279-.129,2.558-.179,3.836-.1,2.341-.166,4.682-.336,7.028-.106,1.472-.29,2.944-.423,4.416-.2,2.152-.363,4.309-.626,6.462-.179,1.49-.432,2.976-.644,4.466-.3,2.134-.57,4.268-.929,6.4-.262,1.564-.6,3.128-.9,4.691-.386,2.052-.74,4.1-1.182,6.145-.35,1.624-.773,3.238-1.155,4.857-.465,1.982-.9,3.969-1.421,5.943-.437,1.669-.943,3.321-1.412,4.981-.543,1.923-1.058,3.845-1.647,5.759-.515,1.679-1.1,3.344-1.656,5.018-.616,1.877-1.205,3.753-1.863,5.621q-2.153,6.072-4.609,12.078c-.483,1.178-1,2.346-1.5,3.519-1.205,2.856-2.447,5.7-3.749,8.523q-1.069,2.332-2.189,4.646-1.325,2.746-2.709,5.478-1.256,2.484-2.571,4.949-1.435,2.7-2.93,5.391c-.961,1.725-1.932,3.441-2.925,5.147q-1.235,2.111-2.493,4.208-1.635,2.7-3.33,5.372c-.865,1.375-1.734,2.746-2.622,4.107-.741,1.132-1.509,2.245-2.263,3.367-3.3,4.917-6.711,9.774-10.294,14.516-.23.3-.469.594-.7.9-3.312,4.351-6.766,8.61-10.3,12.8-.676.8-1.343,1.615-2.028,2.41q-5.388,6.258-11.108,12.244c-.764.805-1.545,1.592-2.318,2.383-3.891,4-7.861,7.916-11.954,11.706-.152.142-.3.29-.455.432-4.365,4.025-8.873,7.884-13.449,11.651-1.049.86-2.088,1.739-3.146,2.585-1.233.984-2.475,1.95-3.716,2.917q-2.574,1.994-5.184,3.946-1.918,1.421-3.854,2.811c-1.642,1.182-3.3,2.341-4.972,3.491q-2.477,1.711-4.986,3.367-2.394,1.58-4.82,3.114-2.539,1.607-5.115,3.16c-1.476.9-2.967,1.771-4.462,2.636-2.686,1.559-5.4,3.059-8.127,4.526-1.223.658-2.442,1.334-3.675,1.973-3.891,2.014-7.81,3.965-11.784,5.786l-.129.064c-4.678,2.143-9.424,4.1-14.208,5.961-1.191.469-2.392.925-3.592,1.376-4.816,1.8-9.668,3.5-14.576,5.009-3.919,1.2-7.81,2.254-11.678,3.229-1.242.313-2.47.575-3.707.865-2.64.62-5.271,1.21-7.884,1.729-1.421.281-2.829.529-4.241.782q-3.67.648-7.3,1.173c-1.412.2-2.82.4-4.222.575-2.516.308-5.009.552-7.493.768-1.228.106-2.465.235-3.684.318q-4.926.338-9.774.423c-.382,0-.768.037-1.15.042-3.6.041-7.157-.032-10.68-.189-1.081-.051-2.148-.147-3.22-.212-2.323-.147-4.627-.322-6.913-.552-2.534-.258-5.027-.607-7.516-.966-1.412-.207-2.838-.372-4.236-.612-2.971-.51-5.887-1.127-8.781-1.785-.869-.2-1.766-.345-2.631-.556-.906-.221-1.78-.5-2.677-.736-2.419-.635-4.825-1.288-7.189-2.024-1.214-.381-2.4-.823-3.6-1.232-2.028-.69-4.057-1.38-6.039-2.148-.993-.387-1.973-.8-2.953-1.21q-3.029-1.241-5.984-2.608c-1.021-.474-2.038-.952-3.045-1.449q-3.222-1.58-6.347-3.312c-.616-.34-1.246-.658-1.858-1.012q-4.009-2.291-7.842-4.825c-.547-.363-1.081-.75-1.624-1.122q-3.043-2.07-5.966-4.287c-.69-.524-1.38-1.048-2.056-1.582-2.369-1.868-4.7-3.781-6.945-5.8l71.44,64.123q2.629,2.359,5.377,4.59c.511.414,1.049.8,1.564,1.2.681.538,1.371,1.063,2.056,1.582q2.925,2.221,5.966,4.291c.547.368,1.076.754,1.628,1.118.221.147.432.308.658.455,2.341,1.527,4.742,2.976,7.185,4.374.607.349,1.242.667,1.858,1.012,1.421.787,2.838,1.591,4.291,2.337.676.345,1.38.644,2.061.98,1,.492,2.019.97,3.036,1.44,1.969.916,3.965,1.78,5.984,2.613.984.4,1.959.818,2.957,1.205.451.175.883.377,1.334.547,1.541.579,3.137,1.072,4.705,1.605,1.2.409,2.383.846,3.6,1.228,2.373.745,4.8,1.4,7.23,2.038.879.23,1.739.506,2.631.722.1.027.2.06.3.083.777.189,1.591.3,2.373.483,2.884.653,5.782,1.27,8.735,1.775,1.407.239,2.843.409,4.259.617,2.484.359,4.972.7,7.5.961.52.055,1.021.152,1.545.2,1.771.166,3.574.244,5.363.354,1.076.069,2.139.166,3.224.212,3.523.156,7.079.234,10.68.189.377,0,.768-.032,1.15-.042q4.843-.09,9.774-.418c1.219-.083,2.447-.216,3.67-.322,2.493-.211,4.991-.455,7.511-.768,1.4-.17,2.806-.368,4.213-.571q3.636-.524,7.3-1.177c1.412-.249,2.82-.5,4.241-.782,2.613-.515,5.243-1.1,7.879-1.725,1.237-.29,2.47-.552,3.712-.865,3.868-.975,7.759-2.038,11.674-3.234,4.912-1.5,9.76-3.21,14.581-5.009q1.8-.67,3.592-1.371c4.779-1.868,9.53-3.818,14.208-5.965l.009,0,.12-.055c3.969-1.826,7.888-3.772,11.779-5.786,1.242-.644,2.461-1.32,3.7-1.983q4.078-2.194,8.1-4.512c.672-.391,1.366-.74,2.033-1.136.828-.488,1.628-1.017,2.452-1.513q2.56-1.545,5.083-3.146,2.442-1.539,4.853-3.128,2.5-1.649,4.968-3.358c.837-.575,1.7-1.118,2.53-1.707s1.628-1.2,2.447-1.785q1.939-1.394,3.854-2.815,2.615-1.945,5.184-3.946c1.242-.966,2.484-1.927,3.712-2.912.557-.446,1.132-.874,1.688-1.325.5-.4.961-.855,1.463-1.265,4.577-3.767,9.08-7.621,13.445-11.646l.1-.087c.129-.115.244-.244.373-.359,4.084-3.786,8.049-7.7,11.936-11.692.465-.478.966-.916,1.426-1.4.308-.318.589-.662.9-.984q5.706-5.982,11.1-12.24c.262-.3.547-.584.8-.888.432-.5.819-1.039,1.242-1.545,3.537-4.181,6.982-8.436,10.289-12.782.179-.235.377-.451.552-.685.055-.069.1-.143.152-.211,3.583-4.742,6.987-9.595,10.285-14.507.354-.52.75-1.017,1.1-1.546.4-.607.782-1.238,1.182-1.849.883-1.352,1.743-2.709,2.6-4.075q1.7-2.683,3.339-5.4,1.263-2.084,2.484-4.19c.515-.879,1.058-1.748,1.559-2.631.478-.837.911-1.688,1.375-2.53q1.5-2.677,2.925-5.377,1.318-2.47,2.58-4.963,1.38-2.725,2.7-5.469c.442-.916.92-1.817,1.352-2.732.294-.635.547-1.279.842-1.914,1.3-2.829,2.543-5.672,3.749-8.528.5-1.173,1.017-2.341,1.495-3.519,1.628-4,3.178-8.026,4.609-12.074l.083-.207c.635-1.808,1.2-3.629,1.794-5.441.547-1.665,1.132-3.326,1.647-4.995C446.141,862.868,446.656,860.936,447.2,859.009Z" transform="translate(156.705 -451.288)"/><path class="d" d="M394.011,645.907c.883-.189,1.766-.364,2.654-.543,4.751-.971,9.484-1.863,14.18-2.617l.377-.055c4.627-.736,9.217-1.343,13.785-1.872.828-.1,1.656-.2,2.484-.29q6.706-.732,13.325-1.159c.869-.055,1.734-.1,2.6-.147,4.526-.258,9.029-.442,13.481-.5.216,0,.428,0,.639,0,4.342-.041,8.638.032,12.906.18.764.028,1.536.046,2.3.078q6.361.276,12.612.832c1.122.1,2.245.207,3.358.318q2.718.276,5.4.6c1.26.152,2.521.313,3.772.483q2.684.365,5.345.787c1.219.189,2.442.382,3.657.589,1.826.313,3.638.653,5.446,1,1.131.216,2.268.427,3.394.658,2.005.418,3.992.869,5.97,1.334.865.2,1.734.382,2.59.589,4.379,1.067,8.689,2.267,12.948,3.555.635.193,1.269.373,1.9.57q6.175,1.918,12.17,4.158c.736.271,1.472.543,2.2.823,3.555,1.362,7.074,2.783,10.528,4.3.437.193.865.4,1.3.594q4.8,2.145,9.452,4.494c.635.318,1.274.63,1.9.952q4.629,2.387,9.126,4.967c.635.364,1.26.746,1.9,1.118q3.815,2.249,7.534,4.636c.639.414,1.288.814,1.927,1.233q4.167,2.739,8.2,5.657c.538.391,1.063.8,1.6,1.2q3.332,2.463,6.564,5.046c.708.566,1.417,1.127,2.116,1.7,2.493,2.047,4.958,4.126,7.359,6.283l.028.023-.009-.009.009,0L551.6,633.359c-2.41-2.166-4.889-4.254-7.391-6.311-.3-.244-.58-.506-.879-.745-.4-.326-.823-.621-1.223-.943q-3.236-2.587-6.564-5.046c-.543-.4-1.072-.809-1.614-1.2q-4.029-2.919-8.2-5.658c-.221-.143-.432-.3-.653-.446-.414-.272-.851-.511-1.269-.782q-3.712-2.387-7.539-4.636c-.635-.372-1.26-.754-1.9-1.122q-4.5-2.581-9.13-4.968c-.23-.115-.446-.248-.672-.363-.4-.207-.819-.382-1.219-.579q-4.671-2.353-9.475-4.5c-.428-.193-.851-.4-1.283-.589-3.454-1.518-6.968-2.939-10.519-4.3-.382-.147-.75-.322-1.136-.465-.354-.133-.727-.239-1.085-.372q-5.989-2.222-12.152-4.149c-.635-.2-1.279-.382-1.913-.575-4.255-1.288-8.56-2.484-12.934-3.551-.1-.023-.2-.06-.3-.083-.768-.188-1.559-.34-2.332-.52-1.969-.455-3.942-.911-5.933-1.32-1.122-.235-2.258-.442-3.39-.658-1.812-.35-3.62-.695-5.451-1.007-1.214-.207-2.433-.4-3.657-.589-1.775-.276-3.551-.543-5.34-.782-1.256-.17-2.511-.331-3.776-.483q-2.691-.331-5.409-.6c-.754-.078-1.495-.179-2.254-.248-.359-.032-.727-.041-1.09-.074q-6.251-.552-12.621-.828c-.764-.037-1.536-.051-2.3-.078-4.268-.147-8.564-.221-12.9-.179-.216,0-.428,0-.644,0-4.452.055-8.951.239-13.477.5-.869.051-1.734.1-2.6.152q-6.61.435-13.316,1.155c-.833.092-1.67.2-2.507.294-4.563.529-9.149,1.132-13.771,1.868-.124.023-.253.037-.377.06-4.692.75-9.42,1.646-14.167,2.613-.892.184-1.785.359-2.677.547q-6.906,1.463-13.881,3.238c-.883.225-1.771.465-2.654.695-4.853,1.269-9.714,2.617-14.608,4.112-5.092,1.559-10.147,3.256-15.179,5.023-1.486.524-2.957,1.072-4.434,1.61q-5.575,2.035-11.09,4.231c-1.463.584-2.925,1.155-4.383,1.757-4.9,2.019-9.788,4.112-14.617,6.325l-.078.037-.037.014c-.078.037-.152.078-.23.115-6.09,2.8-12.1,5.777-18.067,8.868-1.9.989-3.781,2.029-5.671,3.045q-6.292,3.373-12.479,6.95c-1.035.6-2.1,1.136-3.128,1.743-1.265.745-2.493,1.559-3.753,2.318q-3.94,2.38-7.838,4.848-3.739,2.366-7.437,4.8-3.857,2.539-7.658,5.17c-1.292.888-2.617,1.725-3.9,2.631-1.26.888-2.488,1.835-3.749,2.737q-2.981,2.139-5.929,4.333-4.009,2.981-7.957,6.053c-1.918,1.49-3.836,2.976-5.736,4.5-.86.69-1.743,1.343-2.6,2.042-1.987,1.61-3.923,3.289-5.887,4.935-1.458,1.224-2.935,2.433-4.379,3.675q-5.4,4.637-10.657,9.443c-.635.579-1.292,1.136-1.923,1.72-.083.073-.166.147-.244.221q-5.989,5.52-11.775,11.251c-1.164,1.145-2.291,2.318-3.44,3.473-1.973,1.982-3.969,3.946-5.91,5.961-.8.833-1.568,1.688-2.36,2.525-1.348,1.422-2.677,2.857-4.006,4.291q-3.781,4.078-7.465,8.238c-1.283,1.444-2.567,2.888-3.827,4.347-.672.773-1.366,1.527-2.033,2.3-1.964,2.3-3.868,4.646-5.786,6.977-.971,1.177-1.964,2.336-2.921,3.519q-5.037,6.23-9.875,12.593c-.115.152-.221.308-.336.46-.731.97-1.426,1.959-2.148,2.93q-3.933,5.285-7.727,10.648c-1.136,1.619-2.235,3.261-3.353,4.889-1.389,2.029-2.815,4.038-4.172,6.085-.616.925-1.182,1.872-1.789,2.8-1.361,2.088-2.691,4.185-4.02,6.288q-2.608,4.125-5.133,8.293-1.939,3.209-3.818,6.448c-.8,1.367-1.637,2.709-2.419,4.08-.727,1.274-1.384,2.576-2.1,3.859q-2.3,4.12-4.5,8.275-2.015,3.795-3.956,7.613-2.125,4.188-4.158,8.413c-.681,1.421-1.421,2.815-2.093,4.236-.455.975-.842,1.964-1.288,2.939-2.005,4.342-3.914,8.716-5.768,13.1-.759,1.8-1.559,3.593-2.3,5.4-2.5,6.154-4.885,12.336-7.083,18.564-.041.11-.092.225-.133.336-.98,2.778-1.84,5.575-2.755,8.362-.842,2.548-1.734,5.087-2.525,7.644-.911,2.971-1.706,5.956-2.553,8.937-.713,2.525-1.486,5.041-2.148,7.576-.782,2.976-1.435,5.966-2.143,8.951-.6,2.553-1.269,5.1-1.821,7.658-.644,2.99-1.159,5.984-1.725,8.978-.488,2.562-1.04,5.119-1.472,7.686-.529,3.142-.925,6.288-1.371,9.434-.34,2.424-.754,4.839-1.044,7.262-.414,3.431-.685,6.862-1,10.294-.193,2.139-.46,4.278-.616,6.416-.271,3.8-.4,7.6-.543,11.407-.064,1.766-.207,3.532-.248,5.294q-.186,8.341.055,16.655c2.194,75.759,30.9,137.343,77.1,178.813l71.44,64.123c-46.2-41.474-74.908-103.058-77.1-178.812q-.235-8.314-.051-16.66c.041-1.84.189-3.685.262-5.529.143-3.721.262-7.442.529-11.163.166-2.3.451-4.59.662-6.881.3-3.28.557-6.555.952-9.829.3-2.484.718-4.968,1.072-7.451.437-3.082.823-6.168,1.343-9.25.428-2.557.98-5.11,1.463-7.667.57-3,1.09-6,1.734-9,.557-2.576,1.223-5.142,1.835-7.713.7-2.967,1.352-5.934,2.125-8.891.672-2.557,1.449-5.1,2.171-7.644.837-2.962,1.628-5.924,2.534-8.873.787-2.548,1.679-5.082,2.516-7.621.957-2.911,1.872-5.828,2.893-8.725,2.2-6.223,4.586-12.405,7.088-18.559.736-1.812,1.536-3.606,2.3-5.409,1.854-4.388,3.762-8.758,5.768-13.1q1.656-3.594,3.381-7.161,2.035-4.222,4.158-8.417,1.939-3.822,3.956-7.608,2.208-4.167,4.512-8.3,2.208-3.968,4.494-7.907c1.265-2.166,2.534-4.323,3.831-6.472q2.525-4.167,5.138-8.293c1.325-2.1,2.649-4.195,4.011-6.273,1.955-2.99,3.956-5.952,5.975-8.9,1.113-1.624,2.208-3.261,3.339-4.871q3.781-5.368,7.718-10.634c.727-.98,1.426-1.978,2.162-2.953q4.988-6.6,10.211-13.049c.957-1.182,1.946-2.341,2.916-3.519q3.857-4.678,7.819-9.287c1.265-1.458,2.548-2.9,3.831-4.347q3.684-4.153,7.46-8.233,1.994-2.159,4.015-4.3,4.064-4.285,8.247-8.463c1.154-1.164,2.3-2.341,3.463-3.5q5.92-5.83,12.019-11.466c.616-.57,1.26-1.118,1.881-1.683q5.278-4.816,10.694-9.48c1.444-1.242,2.916-2.447,4.374-3.67,2.81-2.355,5.639-4.7,8.5-6.987,1.89-1.513,3.8-3,5.717-4.484q3.953-3.07,7.966-6.062,2.953-2.194,5.933-4.337,3.795-2.719,7.635-5.359,3.815-2.622,7.667-5.175,3.691-2.435,7.433-4.8,3.905-2.471,7.847-4.853,3.415-2.063,6.867-4.057,6.2-3.595,12.5-6.959c1.881-1.012,3.753-2.051,5.648-3.036,5.984-3.1,12.014-6.09,18.122-8.9.069-.032.138-.069.212-.1l.133-.06c4.811-2.208,9.677-4.287,14.562-6.3,1.463-.6,2.939-1.177,4.406-1.766q5.5-2.187,11.053-4.218c1.49-.543,2.976-1.094,4.466-1.619,5.027-1.766,10.078-3.464,15.169-5.018,4.889-1.495,9.756-2.843,14.6-4.112.888-.234,1.775-.474,2.663-.7Q387.1,647.372,394.011,645.907Z" transform="translate(27.353 -574.597)"/><g transform="translate(71.437 64.105)"><path class="e" d="M306.952,603.789c180.809-55.282,332.125,44.45,337.276,222.3,5.152,177.888-137.784,367.578-318.6,422.86-180.85,55.292-332.166-44.441-337.318-222.329C-16.833,848.775,126.1,659.08,306.952,603.789Zm15.413,532.362c117.611-35.955,210.536-159.32,207.183-275C526.2,745.506,427.829,680.629,310.218,716.584S99.646,875.917,102.994,991.559c3.348,115.684,101.765,180.551,219.371,144.592" transform="translate(11.821 -588.535)"/></g></g></g></svg>