<svg xmlns="http://www.w3.org/2000/svg" xmlns:xlink="http://www.w3.org/1999/xlink" width="971.13" height="882.08" viewBox="0 0 971.13 882.08"><defs><style>.a{opacity:0.4;}.b{fill:url(#a);}</style><linearGradient id="a" y1="0.5" x2="1" y2="0.5" gradientUnits="objectBoundingBox"><stop offset="0"/><stop offset="1" stop-color="#7f0"/></linearGradient></defs><g class="a" transform="translate(1429 -4616)"><g transform="translate(-1299.972 4724.806)"><path class="b" d="M559.04,566.087l37.653,94.877L296.73,1018.205l-37.652-94.878Z" transform="translate(-259.078 -566.087)"/></g><g transform="translate(-1000.01 4724.806)"><path class="b" d="M667.335,778.439l37.653,94.878L329.529,660.964l-37.653-94.877Z" transform="translate(-291.876 -566.087)"/></g><g transform="translate(-1428.999 5109.789)"><path class="b" d="M763.953,901.6l37.652,94.877L282.623,703.06,244.97,608.182Z" transform="translate(-244.97 -608.182)"/></g><g transform="translate(-910.016 4909.416)"><path class="b" d="M716.208,586.272l37.653,94.878L339.368,1174.937l-37.652-94.877Z" transform="translate(-301.716 -586.272)"/></g><g transform="translate(-1429 4616)"><path class="b" d="M659.463,554.19,1178.446,847.6,763.953,1341.39,244.97,1047.977Zm89.994,678.4,299.961-357.241L673.959,663,374,1020.238l375.459,212.355" transform="translate(-244.97 -554.19)"/></g></g></svg>