<svg xmlns="http://www.w3.org/2000/svg" width="392.357" height="54" viewBox="0 0 392.357 54"><defs><style>.a,.b{fill:#3fd13d;}.b{fill-rule:evenodd;}</style></defs><g transform="translate(-1288 -161)"><g transform="translate(1426.684 172.753)"><g transform="translate(0 0)"><path class="a" d="M52.351,145.876c8.143,0,10.831,3.3,10.831,10.4v9.49c0,7.107-2.688,10.44-10.831,10.44H42.687a1.183,1.183,0,0,1-1.3-1.3V147.217a1.206,1.206,0,0,1,1.3-1.347h9.664Zm.13,22.879c2.079,0,3.116-.348,3.116-2.948v-9.534c0-2.688-1.037-2.948-3.116-2.948h-2.34a1.168,1.168,0,0,0-1.3,1.3v12.83a1.184,1.184,0,0,0,1.3,1.3h2.34Z" transform="translate(-41.39 -145.094)"/><path class="a" d="M116.238,174.258c0,.956-.434,1.477-1.3,1.477h-4.854a1.168,1.168,0,0,1-1.3-1.3v-3.774a1.148,1.148,0,0,0-1.3-1.3h-3.724a1.164,1.164,0,0,0-1.3,1.3v3.774a1.15,1.15,0,0,1-1.3,1.3H96.307c-.826,0-1.3-.521-1.3-1.477V155.886c0-5.456.863-11.266,10.62-11.266s10.614,5.81,10.614,11.266v18.373Zm-7.455-18.366c0-2.079-.3-3.122-3.159-3.122s-3.166,1.043-3.166,3.122v4.723a1.183,1.183,0,0,0,1.3,1.3h3.724a1.2,1.2,0,0,0,1.3-1.341v-4.68Z" transform="translate(-61.728 -144.62)"/><path class="a" d="M171.235,173.873a1.535,1.535,0,0,1-1.428,2.34h-4.941a1.045,1.045,0,0,1-.993-.608l-4.506-8.708a.443.443,0,0,0-.348-.217h-1.732a1.3,1.3,0,0,0-1.347,1.347v6.846a1.3,1.3,0,0,1-1.347,1.347h-4.854a1.3,1.3,0,0,1-1.341-1.347V147.227a1.3,1.3,0,0,1,1.341-1.347h9.49c7.709,0,10.831,3.3,10.831,10.4,0,4.028-.993,6.846-3.3,8.5a.458.458,0,0,0-.13.565Zm-13.953-20.539a1.3,1.3,0,0,0-1.347,1.347v3.209a1.3,1.3,0,0,0,1.347,1.347h2.21c2.079,0,3.116-.261,3.116-2.948s-1.037-2.948-3.116-2.948h-2.21Z" transform="translate(-81.98 -145.098)"/><path class="a" d="M226.72,174.652c.608.863.217,1.558-.826,1.558h-6.5a1.7,1.7,0,0,1-1.558-.863l-5.375-8.237a.334.334,0,0,0-.608,0l-1.775,2.427a.873.873,0,0,0-.174.565v4.81a1.164,1.164,0,0,1-1.3,1.3h-4.941a1.183,1.183,0,0,1-1.3-1.3V147.18a1.168,1.168,0,0,1,1.3-1.3h4.941a1.15,1.15,0,0,1,1.3,1.3v8.7c0,.434.3.521.521.174l6.8-9.36a1.736,1.736,0,0,1,1.558-.826H225.2c1.086,0,1.434.7.826,1.608l-8.752,12.048a.463.463,0,0,0,0,.608Z" transform="translate(-102.451 -145.094)"/></g><g transform="translate(135.745 0)"><path class="a" d="M49.846,224.4a1.122,1.122,0,0,0-1.269-1.269H42.659a1.157,1.157,0,0,1-1.269-1.269v-4.736a1.139,1.139,0,0,1,1.269-1.269H64.308a1.122,1.122,0,0,1,1.269,1.269v4.736a1.139,1.139,0,0,1-1.269,1.269H58.39a1.139,1.139,0,0,0-1.269,1.269V244.2a1.139,1.139,0,0,1-1.269,1.269H51.115a1.157,1.157,0,0,1-1.269-1.269V224.4Z" transform="translate(-41.39 -215.102)"/><path class="a" d="M118.838,215.86a1.122,1.122,0,0,1,1.269,1.269v4.736a1.139,1.139,0,0,1-1.269,1.269H108.607a1.139,1.139,0,0,0-1.269,1.269v1.352a1.157,1.157,0,0,0,1.269,1.269h6.552a1.122,1.122,0,0,1,1.269,1.269v4.736a1.139,1.139,0,0,1-1.269,1.269h-6.552a1.139,1.139,0,0,0-1.269,1.269v1.352a1.157,1.157,0,0,0,1.269,1.269h10.231a1.122,1.122,0,0,1,1.269,1.269V244.2a1.122,1.122,0,0,1-1.269,1.269H101.079A1.157,1.157,0,0,1,99.81,244.2V217.135a1.139,1.139,0,0,1,1.269-1.269h17.759Z" transform="translate(-65.48 -215.102)"/><path class="a" d="M152.13,224.848c0-2.791.594-10.278,10.613-10.278,9,0,10.4,6.047,10.572,9.3a1.111,1.111,0,0,1-.928,1.187l-4.7,1.058a1.418,1.418,0,0,1-1.692-1.31c-.212-1.857-.97-2.962-3.256-2.962-3.126,0-3.344,1.986-3.344,5.242v6.088c0,3.256.212,5.242,3.344,5.242,2.327,0,2.962-1.1,3.214-3.044a1.326,1.326,0,0,1,1.651-1.228l4.778,1.058a1.126,1.126,0,0,1,.928,1.228c-.17,3.214-1.563,9.261-10.572,9.261-10.019,0-10.613-7.487-10.613-10.278Z" transform="translate(-87.055 -214.57)"/><path class="a" d="M212.086,215.86a1.157,1.157,0,0,1,1.269,1.269V227.7a1.157,1.157,0,0,0,1.269,1.269h4.061a1.139,1.139,0,0,0,1.269-1.269V217.129a1.157,1.157,0,0,1,1.269-1.269h4.736a1.122,1.122,0,0,1,1.269,1.269V244.19a1.139,1.139,0,0,1-1.269,1.269h-4.736a1.16,1.16,0,0,1-1.269-1.269v-6.682a1.122,1.122,0,0,0-1.269-1.269h-4.061a1.139,1.139,0,0,0-1.269,1.269v6.682a1.139,1.139,0,0,1-1.269,1.269h-4.736a1.157,1.157,0,0,1-1.269-1.269V217.129a1.122,1.122,0,0,1,1.269-1.269Z" transform="translate(-109.301 -215.102)"/></g></g><g transform="translate(1288 161)"><path class="b" d="M80.131,33.408l28.189-16.3a1.2,1.2,0,0,1,1.792,1.034v9.837a1.19,1.19,0,0,1-.6,1.034l-20,11.394a1.208,1.208,0,0,1-1.2-.012l-8.2-4.93A1.193,1.193,0,0,1,80.131,33.408Z" transform="translate(-57.119 -16.945)"/><path class="b" d="M181.882,33.408l-28.189-16.3a1.2,1.2,0,0,0-1.792,1.034v9.837a1.19,1.19,0,0,0,.6,1.034l19.986,11.394a1.208,1.208,0,0,0,1.2-.012l8.2-4.93A1.191,1.191,0,0,0,181.882,33.408Z" transform="translate(-86.96 -16.945)"/><path class="b" d="M43.182,48.125l40.06,23.288a1.18,1.18,0,0,0,1.2-.006L92.579,66.6a1.193,1.193,0,0,1,1.8,1.028v9.7a1.191,1.191,0,0,1-.611,1.04l-9.332,5.212a1.2,1.2,0,0,1-1.175-.006L41.989,59.96a1.19,1.19,0,0,1-.6-1.034V49.153A1.192,1.192,0,0,1,43.182,48.125Z" transform="translate(-41.39 -29.734)"/><path class="b" d="M203.105,48.125l-40.06,23.288a1.18,1.18,0,0,1-1.2-.006L153.708,66.6a1.193,1.193,0,0,0-1.8,1.028v9.7a1.191,1.191,0,0,0,.611,1.04l9.332,5.212a1.2,1.2,0,0,0,1.175-.006L204.3,59.96a1.19,1.19,0,0,0,.6-1.034V49.153A1.192,1.192,0,0,0,203.105,48.125Z" transform="translate(-86.964 -29.734)"/>
  </g></g>
</svg>